<svg width="144" height="64" viewBox="0 0 144 64" fill="none" xmlns="http://www.w3.org/2000/svg">
<path d="M62.8039 34.8534C62.738 39.5728 60.5878 43.705 58.6577 47.8875C57.4639 50.4015 55.8622 52.621 54.2173 54.849C52.8201 56.7238 51.0725 57.7764 48.7492 59.2148C46.9709 60.3159 45.2516 61.0495 43.2175 61.5378C42.4111 61.736 41.6112 61.9531 40.8106 62.1734C39.3401 62.5779 37.8699 62.9836 36.3999 63.3898C28.3233 65.4665 20.0901 61.8897 13.1441 57.9655C11.6449 57.0554 10.2277 56.0322 8.77885 55.0472C5.83239 52.8408 4.34725 49.2115 2.72822 46.0253C-0.483526 39.4796 -0.723398 32.1915 1.29645 25.2811C4.40648 15.3249 11.6032 8.49751 20.3752 3.3561C26.5792 -0.046092 34.8359 -0.931555 41.617 1.02097C55.3961 5.50936 63.1457 21.1274 62.8039 34.8534ZM48.4369 8.61806C48.2082 8.38656 47.9796 8.15506 47.7439 7.91654C43.6196 3.95466 38.9454 3.19274 33.431 3.21389C29.6535 3.29621 26.2606 4.71178 22.8591 6.20363C13.5625 10.5221 6.82383 18.842 3.9118 28.5661C3.41251 30.3634 3.3589 32.1979 3.36835 34.0488C3.49197 40.8925 5.84455 47.6598 10.5284 52.7536C15.8091 57.6297 24.4665 61.3687 31.6701 61.2532C34.2189 61.1344 36.6268 60.5531 39.0671 59.8395C39.2872 59.776 39.5073 59.7126 39.734 59.6472C41.1891 59.2228 42.6275 58.76 44.0644 58.2779C44.3566 58.1861 44.6489 58.0943 44.9501 57.9997C49.7105 56.3478 53.3949 51.818 55.8156 47.5612C56.033 47.1907 56.033 47.1907 56.2548 46.8127C64.0625 33.2376 59.5005 19.1953 48.4369 8.61806Z" fill="#0D0806"/>
<path d="M56.361 33.9915C56.3178 40.2651 53.1431 45.8411 48.8273 50.3136C45.6682 53.4217 41.619 54.4119 37.525 55.65C33.008 56.5568 28.3623 55.4466 23.9016 54.7106C18.2896 53.7477 14.3056 51.0702 10.9578 46.4095C7.7684 40.7085 4.9972 34.41 6.72189 27.8066C7.89093 24.4601 9.91504 21.6481 12.4865 19.236C13.7945 17.996 14.9334 16.5652 16.1234 15.2123C19.9832 10.9943 25.42 8.65845 31.1211 8.22039C36.076 8.09065 39.9478 9.77322 44.0644 12.366C46.1563 13.6324 47.8278 15.2297 49.3263 17.168C49.9335 17.9086 50.5267 18.4804 51.2674 19.081C55.9178 22.9888 56.3597 28.3549 56.361 33.9915ZM49.9985 19.8618C48.1663 17.7196 46.2605 15.6042 43.752 14.24C39.326 11.8163 34.3538 9.33524 29.1816 10.7126C24.9605 12.02 20.9896 13.6143 17.9071 16.8752C16.0644 18.7694 14.3875 20.8048 12.5194 22.6728C9.7204 25.7427 8.47346 29.4066 8.59341 33.4993C9.03737 39.418 12.1118 46.0844 16.537 50.055C21.578 54.1363 30.3284 54.85 36.5685 54.2177C37.9732 53.9127 39.2874 53.4809 40.6288 52.9684C46.776 50.8523 50.2094 45.6854 53.1218 40.163C56.1945 33.3207 54.7269 25.3522 49.9985 19.8618Z" fill="#0D0806"/>
<path d="M45.626 46.7219C43.7554 48.8957 41.9184 50.2842 39.0671 50.7821C37.9877 50.8488 36.9081 50.8416 35.8267 50.8407C32.7553 50.8381 29.7345 50.5371 26.7107 50.0208C24.6331 49.6168 22.754 48.6961 20.7729 48.0017C16.5227 46.4851 13.695 42.6583 11.6996 38.738C10.4881 35.9009 10.6917 33.0738 11.5824 30.1686C13.7102 22.9317 20.2227 18.3978 26.6644 15.2148C28.6572 14.3906 30.6898 14.1312 32.8268 14.1477C37.6527 14.2517 41.8917 15.0327 45.626 18.3002C46.3493 19.1198 46.9941 20.0029 47.6603 20.8684C49.0261 22.6658 49.5611 24.5385 49.8035 26.7422C50.4812 33.3998 50.0531 41.3156 45.626 46.7219ZM44.0594 19.7252C42.6842 18.6423 41.1252 17.9061 39.549 17.1741C37.4234 16.3972 35.1246 16.5991 32.9023 16.5281C30.1566 16.5142 28.2819 17.1953 25.9494 18.6125C25.1394 19.0958 24.3456 19.6007 23.5679 20.1351C21.7714 21.3537 18.3739 23.3036 16.2673 26.4207C14.1077 29.6164 12.2789 32.0317 13.1441 35.7905C13.4746 37.2267 14.1128 38.1005 14.7057 39.226C16.6787 43.0174 18.9735 45.8996 23.1385 47.3465C27.073 48.7267 31.1165 49.2761 35.2802 49.3181C38.3104 49.3677 40.8692 48.8511 43.1749 46.7231C44.1316 45.6855 44.7259 44.5614 45.3136 43.2863C48.5632 36.4573 50.2911 25.4775 44.0594 19.7252Z" fill="#0D0806"/>
<path d="M45.0635 31.6249C45.2288 36.3163 43.364 40.9568 40.5452 44.5388C39.091 46.1172 37.8645 45.8444 35.8527 45.8735C24.9804 45.9456 24.9804 45.9456 21.3438 42.4753C20.2367 41.0228 19.4223 39.3824 18.4232 37.8555C17.1427 35.7184 17.3054 33.0093 17.6085 30.5893C18.0557 29.3926 18.6504 28.552 19.4761 27.6178C22.2368 24.2478 25.9408 21.7136 30.1943 21.2208C32.2824 21.1791 34.2625 21.4627 36.2847 22.005C35.5303 23.2054 34.8115 23.1505 33.4444 23.2431C28.7431 23.7228 24.5363 26.0639 21.4799 29.9083C20.5862 31.2939 20.2554 32.5454 20.41 34.2211C21.0483 36.8923 22.3955 39.1811 24.3981 40.9276C26.5225 42.1206 28.6719 42.6391 31.0515 42.8674C31.3054 42.8939 31.5593 42.9205 31.8209 42.9478C35.7684 43.3318 38.0014 43.9782 39.9865 40.3305C41.4241 37.6725 42.1959 35.5835 42.2973 32.48C42.3717 30.3091 42.977 28.4432 42.5101 25.967C42.3432 25.0819 43.2258 22.863 44.689 25.967C45.6228 27.948 44.9483 29.7378 45.0635 31.6249Z" fill="#0D0806"/>
<path d="M143.656 25.999V60.7843H141.079V25.999H143.656Z" fill="#0D0806"/>
<path d="M133.955 29.2199C133.955 28.8978 133.908 28.6495 133.814 28.4751C133.733 28.3006 133.592 28.1731 133.391 28.0926C133.19 28.0121 132.921 27.9651 132.586 27.9517C132.264 27.9382 131.861 27.9315 131.378 27.9315V58.8518C131.861 58.8518 132.264 58.8451 132.586 58.8317C132.921 58.8182 133.19 58.7713 133.391 58.6908C133.592 58.6102 133.733 58.4827 133.814 58.3083C133.908 58.1338 133.955 57.8855 133.955 57.5635V29.2199ZM136.531 57.5635C136.531 58.3687 136.384 58.9927 136.089 59.4356C135.793 59.865 135.404 60.1804 134.921 60.3817C134.438 60.583 133.888 60.7038 133.27 60.7441C132.653 60.7709 132.022 60.7843 131.378 60.7843H128.801V25.999H131.378C132.022 25.999 132.653 26.0192 133.27 26.0594C133.888 26.0863 134.438 26.2003 134.921 26.4016C135.404 26.6029 135.793 26.925 136.089 27.3679C136.384 27.7973 136.531 28.4147 136.531 29.2199V57.5635Z" fill="#0D0806"/>
<path d="M125.22 60.7843H122.643L122.321 52.4101H120.409L120.066 60.7843H117.49L119.422 25.999H123.287L125.22 60.7843ZM121.999 42.7475L121.355 27.2874L120.711 42.7475L120.409 50.4776H122.321L121.999 42.7475Z" fill="#0D0806"/>
<path d="M113.908 40.1708C113.908 41.1371 113.747 41.8081 113.425 42.1838C113.103 42.5596 112.62 42.7475 111.976 42.7475C112.298 42.7475 112.58 42.8213 112.821 42.9689C113.063 43.1166 113.264 43.3111 113.425 43.5527C113.586 43.7943 113.707 44.0694 113.787 44.3781C113.868 44.6867 113.908 45.0021 113.908 45.3242V60.7843H111.331V44.68C111.331 44.3579 111.258 44.1097 111.11 43.9352C110.962 43.7607 110.768 43.6332 110.526 43.5527C110.285 43.4722 110.01 43.4252 109.701 43.4118C109.392 43.3984 109.077 43.3917 108.755 43.3917V60.7843H106.178V25.999H108.755C109.399 25.999 110.03 26.0192 110.647 26.0594C111.264 26.0863 111.815 26.2003 112.298 26.4016C112.781 26.6029 113.17 26.925 113.465 27.3679C113.76 27.7973 113.908 28.4147 113.908 29.2199V40.1708ZM111.331 29.2199C111.331 28.8978 111.284 28.6495 111.191 28.4751C111.11 28.3006 110.969 28.1731 110.768 28.0926C110.566 28.0121 110.298 27.9651 109.963 27.9517C109.64 27.9382 109.238 27.9315 108.755 27.9315V42.1033C109.077 42.1033 109.392 42.0966 109.701 42.0832C110.01 42.0698 110.285 42.0228 110.526 41.9423C110.768 41.8618 110.962 41.7343 111.11 41.5598C111.258 41.3853 111.331 41.1371 111.331 40.815V29.2199Z" fill="#0D0806"/>
<path d="M101.952 40.1708C101.952 41.1371 101.791 41.8081 101.469 42.1838C101.147 42.5596 100.664 42.7475 100.02 42.7475C100.342 42.7475 100.624 42.8213 100.865 42.9689C101.107 43.1166 101.308 43.3111 101.469 43.5527C101.63 43.7943 101.751 44.0694 101.832 44.3781C101.912 44.6867 101.952 45.0021 101.952 45.3242V60.7843H99.3756V44.68C99.3756 44.3579 99.3018 44.1097 99.1542 43.9352C99.0065 43.7607 98.812 43.6332 98.5704 43.5527C98.3288 43.4722 98.0537 43.4252 97.745 43.4118C97.4364 43.3984 97.121 43.3917 96.7989 43.3917V60.7843H94.2222V25.999H96.7989C97.4431 25.999 98.0738 26.0192 98.6912 26.0594C99.3085 26.0863 99.8587 26.2003 100.342 26.4016C100.825 26.6029 101.214 26.925 101.509 27.3679C101.805 27.7973 101.952 28.4147 101.952 29.2199V40.1708ZM99.3756 29.2199C99.3756 28.8978 99.3286 28.6495 99.2347 28.4751C99.1542 28.3006 99.0133 28.1731 98.812 28.0926C98.6107 28.0121 98.3422 27.9651 98.0067 27.9517C97.6847 27.9382 97.282 27.9315 96.7989 27.9315V42.1033C97.121 42.1033 97.4364 42.0966 97.745 42.0832C98.0537 42.0698 98.3288 42.0228 98.5704 41.9423C98.812 41.8618 99.0065 41.7343 99.1542 41.5598C99.3018 41.3853 99.3756 41.1371 99.3756 40.815V29.2199Z" fill="#0D0806"/>
<path d="M89.9964 57.5637C89.9964 57.7247 89.9763 58.0199 89.936 58.4494C89.8958 58.8654 89.7549 59.2949 89.5133 59.7377C89.2717 60.1806 88.8893 60.5698 88.3659 60.9053C87.8425 61.2542 87.0976 61.4287 86.1314 61.4287C85.1651 61.4287 84.4203 61.2542 83.8969 60.9053C83.3735 60.5698 82.9911 60.1806 82.7495 59.7377C82.5079 59.2949 82.367 58.8654 82.3267 58.4494C82.2865 58.0199 82.2664 57.7247 82.2664 57.5637V29.2201C82.2664 29.1127 82.2731 28.9517 82.2865 28.737C82.2999 28.5222 82.3402 28.2874 82.4073 28.0324C82.4744 27.764 82.5884 27.4956 82.7495 27.2272C82.9105 26.9453 83.132 26.6904 83.4138 26.4622C83.6956 26.2341 84.058 26.0529 84.5008 25.9187C84.9437 25.7711 85.4872 25.6973 86.1314 25.6973C86.7756 25.6973 87.3191 25.7711 87.762 25.9187C88.2048 26.0529 88.5672 26.2341 88.849 26.4622C89.1308 26.6904 89.3523 26.9453 89.5133 27.2272C89.6743 27.4956 89.7884 27.764 89.8555 28.0324C89.9226 28.2874 89.9629 28.5222 89.9763 28.737C89.9897 28.9517 89.9964 29.1127 89.9964 29.2201V57.5637ZM84.843 57.5637C84.843 57.7247 84.8498 57.9193 84.8632 58.1474C84.8766 58.3622 84.9236 58.5702 85.0041 58.7715C85.0846 58.9728 85.2121 59.1472 85.3866 59.2949C85.561 59.4291 85.8093 59.4962 86.1314 59.4962C86.4535 59.4962 86.7018 59.4291 86.8762 59.2949C87.0507 59.1472 87.1782 58.9728 87.2587 58.7715C87.3392 58.5702 87.3862 58.3622 87.3996 58.1474C87.413 57.9193 87.4197 57.7247 87.4197 57.5637V29.2201C87.4197 29.059 87.413 28.8846 87.3996 28.6967C87.3862 28.5088 87.3392 28.3411 87.2587 28.1934C87.1782 28.0324 87.0507 27.8982 86.8762 27.7908C86.7018 27.6835 86.4535 27.6298 86.1314 27.6298C85.8093 27.6298 85.561 27.6835 85.3866 27.7908C85.2121 27.8982 85.0846 28.0324 85.0041 28.1934C84.9236 28.3411 84.8766 28.5088 84.8632 28.6967C84.8498 28.8846 84.843 29.059 84.843 29.2201V57.5637Z" fill="#0D0806"/>
<path d="M78.0406 40.171H75.4639V29.2201C75.4639 28.898 75.4237 28.6363 75.3431 28.435C75.276 28.2203 75.1821 28.0592 75.0613 27.9519C74.9405 27.8311 74.7996 27.7506 74.6386 27.7103C74.491 27.6566 74.3366 27.6298 74.1756 27.6298C74.0145 27.6298 73.8535 27.6566 73.6925 27.7103C73.5448 27.7506 73.4106 27.8311 73.2898 27.9519C73.1691 28.0592 73.0684 28.2203 72.9879 28.435C72.9208 28.6363 72.8872 28.898 72.8872 29.2201V57.5637C72.8872 57.7247 72.8939 57.9193 72.9074 58.1474C72.9208 58.3622 72.9678 58.5702 73.0483 58.7715C73.1288 58.9728 73.2563 59.1472 73.4308 59.2949C73.6052 59.4291 73.8535 59.4962 74.1756 59.4962C74.4977 59.4962 74.7459 59.4291 74.9204 59.2949C75.0949 59.1472 75.2224 58.9728 75.3029 58.7715C75.3834 58.5702 75.4304 58.3622 75.4438 58.1474C75.4572 57.9193 75.4639 57.7247 75.4639 57.5637V44.036H78.0406V57.5637C78.0406 57.7247 78.0205 58.0199 77.9802 58.4494C77.94 58.8654 77.799 59.2949 77.5575 59.7377C77.3159 60.1806 76.9334 60.5698 76.4101 60.9053C75.8867 61.2542 75.1418 61.4287 74.1756 61.4287C73.2093 61.4287 72.4645 61.2542 71.9411 60.9053C71.4177 60.5698 71.0352 60.1806 70.7937 59.7377C70.5521 59.2949 70.4112 58.8654 70.3709 58.4494C70.3307 58.0199 70.3105 57.7247 70.3105 57.5637V29.2201C70.3105 28.6028 70.4246 28.0727 70.6528 27.6298C70.8809 27.1735 71.1762 26.8044 71.5385 26.5226C71.9143 26.2408 72.3303 26.0328 72.7866 25.8986C73.2429 25.7644 73.7059 25.6973 74.1756 25.6973C74.6721 25.6973 75.1485 25.7711 75.6048 25.9187C76.0745 26.0663 76.4906 26.2878 76.8529 26.583C77.2153 26.8782 77.5038 27.2473 77.7185 27.6902C77.9333 28.133 78.0406 28.643 78.0406 29.2201V40.171Z" fill="#0D0806"/>
<path d="M143.907 23.3049H142.385L142.194 18.3565H141.064L140.862 23.3049H139.339L140.481 2.75H142.765L143.907 23.3049ZM142.004 12.6468L141.623 3.51129L141.243 12.6468L141.064 17.2146H142.194L142.004 12.6468Z" fill="#0D0806"/>
<path d="M137.033 2.75V23.3049H135.51V2.75H137.033Z" fill="#0D0806"/>
<path d="M132.823 11.1242C132.823 11.6952 132.728 12.0917 132.537 12.3138C132.347 12.5358 132.061 12.6468 131.681 12.6468C131.871 12.6468 132.038 12.6904 132.18 12.7777C132.323 12.8649 132.442 12.9799 132.537 13.1226C132.632 13.2654 132.704 13.4279 132.751 13.6103C132.799 13.7927 132.823 13.9791 132.823 14.1694V23.3049H131.3V13.7888C131.3 13.5984 131.257 13.4517 131.169 13.3486C131.082 13.2456 130.967 13.1702 130.824 13.1226C130.682 13.0751 130.519 13.0473 130.337 13.0394C130.154 13.0314 129.968 13.0275 129.778 13.0275V23.3049H128.255V2.75H129.778C130.158 2.75 130.531 2.7619 130.896 2.78569C131.261 2.80155 131.586 2.86895 131.871 2.9879C132.157 3.10686 132.387 3.29718 132.561 3.55888C132.736 3.81264 132.823 4.17743 132.823 4.65324V11.1242ZM131.3 4.65324C131.3 4.46291 131.272 4.3162 131.217 4.21311C131.169 4.11002 131.086 4.03468 130.967 3.9871C130.848 3.93952 130.69 3.91177 130.491 3.90384C130.301 3.89591 130.063 3.89194 129.778 3.89194V12.2662C129.968 12.2662 130.154 12.2622 130.337 12.2543C130.519 12.2464 130.682 12.2186 130.824 12.171C130.967 12.1234 131.082 12.0481 131.169 11.945C131.257 11.8419 131.3 11.6952 131.3 11.5049V4.65324Z" fill="#0D0806"/>
<path d="M126.139 3.89194H124.235V11.8855H125.758V13.0275H124.235V22.163H126.139V23.3049H122.713V2.75H126.139V3.89194Z" fill="#0D0806"/>
<path d="M118.312 2.75H119.835L120.216 23.3049H118.693V9.221L117.551 22.163H116.79L115.648 9.221V23.3049H114.125L114.506 2.75H116.029L117.171 16.8339L118.312 2.75Z" fill="#0D0806"/>
<path d="M112.009 23.3049H110.486L110.296 18.3565H109.166L108.964 23.3049H107.441L108.583 2.75H110.867L112.009 23.3049ZM110.106 12.6468L109.725 3.51129L109.344 12.6468L109.166 17.2146H110.296L110.106 12.6468Z" fill="#0D0806"/>
<path d="M105.325 23.3049H103.802L101.899 8.07906V23.3049H100.757V2.75H102.28L104.183 17.9759V2.75H105.325V23.3049Z" fill="#0D0806"/>
<path d="M98.26 11.1244H96.7374V4.65344C96.7374 4.55828 96.7335 4.45519 96.7255 4.34417C96.7176 4.23314 96.6899 4.13402 96.6423 4.04679C96.5947 3.95162 96.5194 3.87232 96.4163 3.80888C96.3132 3.74544 96.1665 3.71372 95.9761 3.71372C95.7858 3.71372 95.6391 3.74544 95.536 3.80888C95.4329 3.87232 95.3576 3.95162 95.31 4.04679C95.2624 4.13402 95.2347 4.23314 95.2267 4.34417C95.2188 4.45519 95.2148 4.55828 95.2148 4.65344V21.4019C95.2148 21.4971 95.2188 21.6121 95.2267 21.7469C95.2347 21.8738 95.2624 21.9967 95.31 22.1156C95.3576 22.2346 95.4329 22.3377 95.536 22.4249C95.6391 22.5042 95.7858 22.5439 95.9761 22.5439C96.1665 22.5439 96.3132 22.5042 96.4163 22.4249C96.5194 22.3377 96.5947 22.2346 96.6423 22.1156C96.6899 21.9967 96.7176 21.8738 96.7255 21.7469C96.7335 21.6121 96.7374 21.4971 96.7374 21.4019V13.789H96.3568V12.647H98.26V21.4019C98.26 21.4971 98.2481 21.6715 98.2243 21.9253C98.2006 22.1711 98.1173 22.4249 97.9745 22.6866C97.8318 22.9483 97.6058 23.1783 97.2965 23.3765C96.9872 23.5827 96.5471 23.6858 95.9761 23.6858C95.4052 23.6858 94.965 23.5827 94.6558 23.3765C94.3465 23.1783 94.1205 22.9483 93.9777 22.6866C93.835 22.4249 93.7517 22.1711 93.7279 21.9253C93.7042 21.6715 93.6923 21.4971 93.6923 21.4019V4.65344C93.6923 4.59 93.6962 4.49484 93.7042 4.36796C93.7121 4.24107 93.7359 4.1023 93.7755 3.95162C93.8152 3.79302 93.8826 3.63442 93.9777 3.47581C94.0729 3.30928 94.2038 3.15861 94.3703 3.0238C94.5368 2.88898 94.7509 2.78193 95.0126 2.70262C95.2743 2.61539 95.5955 2.57178 95.9761 2.57178C96.3568 2.57178 96.678 2.61539 96.9397 2.70262C97.2014 2.78193 97.4155 2.88898 97.582 3.0238C97.7485 3.15861 97.8794 3.30928 97.9745 3.47581C98.0697 3.63442 98.1371 3.79302 98.1768 3.95162C98.2164 4.1023 98.2402 4.24107 98.2481 4.36796C98.2561 4.49484 98.26 4.59 98.26 4.65344V11.1244Z" fill="#0D0806"/>
<path d="M91.5758 3.89194H89.6726V11.8855H91.1952V13.0275H89.6726V22.163H91.5758V23.3049H88.15V2.75H91.5758V3.89194Z" fill="#0D0806"/>
<path d="M84.1304 2.75V22.163H85.653V23.3049H82.6078V2.75H84.1304Z" fill="#0D0806"/>
<path d="M80.4914 23.3049H78.9688L78.7785 18.3565H77.6485L77.4462 23.3049H75.9236L77.0656 2.75H79.3495L80.4914 23.3049ZM78.5882 12.6468L78.2075 3.51129L77.8269 12.6468L77.6485 17.2146H78.7785L78.5882 12.6468Z" fill="#0D0806"/>
<path d="M74.1878 3.89194H72.2846V11.5049H73.8072V12.6468H72.2846V23.3049H70.762V2.75H74.1878V3.89194Z" fill="#0D0806"/>
</svg>
