<svg width="362" height="160" viewBox="0 0 362 160" fill="none" xmlns="http://www.w3.org/2000/svg">
<path d="M158.075 87.1336C157.91 98.9319 152.523 109.263 147.687 119.719C144.696 126.004 140.683 131.552 136.561 137.122C133.06 141.809 128.682 144.441 122.861 148.037C118.405 150.79 114.097 152.624 109.001 153.844C106.98 154.34 104.976 154.883 102.97 155.434C99.2859 156.445 95.6024 157.459 91.9193 158.475C71.6832 163.666 51.0546 154.724 33.6511 144.914C29.8949 142.638 26.3439 140.081 22.7139 137.618C15.3314 132.102 11.6104 123.029 7.55387 115.063C-0.493245 98.6991 -1.09426 80.4788 3.96653 63.2028C11.7588 38.3123 29.7905 21.2438 51.7688 8.39024C67.3131 -0.11523 88.0007 -2.32889 104.991 2.55244C139.515 13.7734 158.932 52.8184 158.075 87.1336ZM122.078 21.5451C121.505 20.9664 120.932 20.3876 120.342 19.7914C110.008 9.88665 98.297 7.98186 84.4806 8.03472C75.016 8.24054 66.5148 11.7794 57.9924 15.5091C34.6995 26.3053 17.8155 47.1049 10.5194 71.4153C9.26838 75.9085 9.13406 80.4947 9.15774 85.1221C9.46748 102.231 15.3619 119.15 27.0973 131.884C40.3283 144.074 62.0197 153.422 80.0685 153.133C86.4547 152.836 92.4877 151.383 98.602 149.599C99.1535 149.44 99.7049 149.281 100.273 149.118C103.919 148.057 107.523 146.9 111.123 145.695C111.855 145.465 112.587 145.236 113.342 144.999C125.269 140.87 134.501 129.545 140.566 118.903C141.111 117.977 141.111 117.977 141.666 117.032C161.229 83.0939 149.798 47.9884 122.078 21.5451Z" fill="#FFF7F5"/>
<path d="M141.932 84.9798C141.824 100.664 133.87 114.604 123.057 125.785C115.141 133.555 104.996 136.031 94.7383 139.126C83.4207 141.393 71.7807 138.618 60.6045 136.777C46.5434 134.37 36.5614 127.676 28.1734 116.025C20.1823 101.772 13.239 86.0259 17.5602 69.5176C20.4893 61.1512 25.5607 54.1212 32.0036 48.0909C35.2807 44.9909 38.1344 41.4141 41.1159 38.0318C50.7868 27.4867 64.4089 21.6471 78.6932 20.5519C91.1078 20.2276 100.809 24.434 111.123 30.916C116.364 34.0819 120.552 38.0753 124.307 42.9211C125.828 44.7724 127.314 46.202 129.17 47.7036C140.822 57.4731 141.929 70.8884 141.932 84.9798ZM125.991 49.6556C121.4 44.3001 116.625 39.0114 110.34 35.6009C99.2507 29.5417 86.7927 23.3391 73.8336 26.7824C63.2575 30.0509 53.3083 34.0368 45.585 42.189C40.9681 46.9244 36.7665 52.0129 32.0861 56.6829C25.0731 64.3577 21.9488 73.5174 22.2494 83.7491C23.3617 98.5459 31.0649 115.212 42.1522 125.138C54.7825 135.342 76.7069 137.126 92.3418 135.545C95.8612 134.783 99.1541 133.703 102.515 132.422C117.917 127.132 126.519 114.215 133.816 100.409C141.515 83.3028 137.838 63.3814 125.991 49.6556Z" fill="#FFF7F5"/>
<path d="M115.035 116.805C110.349 122.24 105.746 125.711 98.602 126.955C95.8974 127.122 93.1925 127.104 90.4831 127.102C82.7875 127.096 75.2189 126.343 67.6427 125.052C62.4371 124.042 57.7291 121.741 52.7653 120.004C42.1163 116.213 35.0315 106.646 30.0318 96.8453C26.9964 89.7526 27.5066 82.6848 29.7384 75.4217C35.0695 57.3296 51.3868 45.9948 67.5266 38.0372C72.5198 35.9768 77.6125 35.3282 82.9668 35.3695C95.0581 35.6295 105.679 37.582 115.035 45.7508C116.848 47.7997 118.463 50.0075 120.133 52.1711C123.555 56.6647 124.895 61.3464 125.502 66.8558C127.2 83.4998 126.128 103.289 115.035 116.805ZM111.11 49.3132C107.665 46.606 103.759 44.7656 99.8094 42.9356C94.4837 40.9932 88.724 41.4979 83.156 41.3206C76.2765 41.2857 71.5794 42.9885 65.7353 46.5316C63.7057 47.7397 61.7169 49.0021 59.7684 50.338C55.2671 53.3844 46.7545 58.2591 41.4765 66.0519C36.0654 74.0413 31.4834 80.0794 33.6511 89.4764C34.4794 93.0669 36.0784 95.2514 37.5638 98.0653C42.5073 107.544 48.257 114.749 58.6924 118.367C68.5505 121.817 78.6815 123.19 89.1137 123.295C96.706 123.419 103.117 122.128 108.894 116.808C111.291 114.214 112.78 111.404 114.253 108.216C122.395 91.1436 126.724 63.6941 111.11 49.3132Z" fill="#FFF7F5"/>
<path d="M113.626 79.0631C114.04 90.7914 109.368 102.393 102.305 111.348C98.6618 115.294 95.5887 114.612 90.5481 114.685C63.3074 114.865 63.3074 114.865 54.1956 106.189C51.4218 102.558 49.3813 98.4566 46.878 94.6396C43.6696 89.2968 44.0774 82.524 44.8368 76.474C45.9572 73.4823 47.4472 71.3807 49.5162 69.0452C56.4331 60.6203 65.7135 54.2847 76.3708 53.0528C81.6027 52.9485 86.5639 53.6574 91.6305 55.0132C89.7402 58.0141 87.9395 57.877 84.514 58.1085C72.7348 59.3078 62.1945 65.1604 54.5368 74.7716C52.2974 78.2355 51.4686 81.3643 51.8559 85.5536C53.4554 92.2314 56.8307 97.9535 61.8483 102.32C67.171 105.302 72.5564 106.599 78.5186 107.169C79.1547 107.236 79.7909 107.302 80.4464 107.37C90.3369 108.33 95.9318 109.946 100.906 100.827C104.507 94.1821 106.441 88.9594 106.695 81.2008C106.882 75.7736 108.398 71.1088 107.228 64.9182C106.81 62.7056 109.022 57.1582 112.688 64.9182C115.027 69.8707 113.337 74.3453 113.626 79.0631Z" fill="#FFF7F5"/>
<path d="M360.652 64.9968V151.96H354.196V64.9968H360.652Z" fill="#FFF7F5"/>
<path d="M336.346 73.049C336.346 72.2438 336.228 71.6231 335.992 71.1869C335.791 70.7508 335.438 70.432 334.933 70.2307C334.429 70.0294 333.756 69.912 332.916 69.8784C332.109 69.8449 331.1 69.8281 329.89 69.8281V147.129C331.1 147.129 332.109 147.112 332.916 147.078C333.756 147.045 334.429 146.927 334.933 146.726C335.438 146.525 335.791 146.206 335.992 145.77C336.228 145.334 336.346 144.713 336.346 143.908V73.049ZM342.801 143.908C342.801 145.921 342.432 147.481 341.692 148.588C340.952 149.662 339.977 150.45 338.767 150.954C337.556 151.457 336.177 151.759 334.631 151.859C333.084 151.926 331.504 151.96 329.89 151.96H323.434V64.9968H329.89C331.504 64.9968 333.084 65.0472 334.631 65.1478C336.177 65.2149 337.556 65.5001 338.767 66.0033C339.977 66.5066 340.952 67.3118 341.692 68.419C342.432 69.4926 342.801 71.0359 342.801 73.049V143.908Z" fill="#FFF7F5"/>
<path d="M314.46 151.96H308.004L307.197 131.024H302.405L301.548 151.96H295.092L299.934 64.9968H309.618L314.46 151.96ZM306.39 106.868L304.776 68.2177L303.162 106.868L302.405 126.193H307.197L306.39 106.868Z" fill="#FFF7F5"/>
<path d="M286.118 100.426C286.118 102.842 285.715 104.519 284.908 105.459C284.101 106.398 282.89 106.868 281.276 106.868C282.083 106.868 282.789 107.053 283.395 107.422C284 107.791 284.504 108.277 284.908 108.881C285.311 109.485 285.614 110.173 285.816 110.944C286.017 111.716 286.118 112.505 286.118 113.31V151.96H279.662V111.699C279.662 110.894 279.477 110.273 279.107 109.837C278.737 109.401 278.25 109.082 277.645 108.881C277.039 108.68 276.35 108.562 275.577 108.529C274.803 108.495 274.013 108.478 273.206 108.478V151.96H266.75V64.9968H273.206C274.82 64.9968 276.401 65.0472 277.947 65.1478C279.494 65.2149 280.873 65.5001 282.083 66.0033C283.294 66.5066 284.269 67.3118 285.009 68.419C285.748 69.4926 286.118 71.0359 286.118 73.049V100.426ZM279.662 73.049C279.662 72.2438 279.544 71.6231 279.309 71.1869C279.107 70.7508 278.754 70.432 278.25 70.2307C277.746 70.0294 277.073 69.912 276.232 69.8784C275.425 69.8449 274.417 69.8281 273.206 69.8281V105.258C274.013 105.258 274.803 105.241 275.577 105.207C276.35 105.174 277.039 105.056 277.645 104.855C278.25 104.654 278.737 104.335 279.107 103.899C279.477 103.463 279.662 102.842 279.662 102.037V73.049Z" fill="#FFF7F5"/>
<path d="M256.163 100.426C256.163 102.842 255.759 104.519 254.952 105.459C254.145 106.398 252.935 106.868 251.321 106.868C252.128 106.868 252.834 107.053 253.439 107.422C254.044 107.791 254.549 108.277 254.952 108.881C255.356 109.485 255.658 110.173 255.86 110.944C256.062 111.716 256.163 112.505 256.163 113.31V151.96H249.707V111.699C249.707 110.894 249.522 110.273 249.152 109.837C248.782 109.401 248.294 109.082 247.689 108.881C247.084 108.68 246.395 108.562 245.621 108.529C244.848 108.495 244.058 108.478 243.251 108.478V151.96H236.795V64.9968H243.251C244.865 64.9968 246.445 65.0472 247.992 65.1478C249.538 65.2149 250.917 65.5001 252.128 66.0033C253.338 66.5066 254.313 67.3118 255.053 68.419C255.793 69.4926 256.163 71.0359 256.163 73.049V100.426ZM249.707 73.049C249.707 72.2438 249.589 71.6231 249.354 71.1869C249.152 70.7508 248.799 70.432 248.294 70.2307C247.79 70.0294 247.117 69.912 246.277 69.8784C245.47 69.8449 244.461 69.8281 243.251 69.8281V105.258C244.058 105.258 244.848 105.241 245.621 105.207C246.395 105.174 247.084 105.056 247.689 104.855C248.294 104.654 248.782 104.335 249.152 103.899C249.522 103.463 249.707 102.842 249.707 102.037V73.049Z" fill="#FFF7F5"/>
<path d="M226.207 143.908C226.207 144.311 226.156 145.049 226.055 146.123C225.955 147.163 225.601 148.236 224.996 149.344C224.391 150.451 223.433 151.424 222.121 152.263C220.81 153.135 218.944 153.571 216.523 153.571C214.102 153.571 212.236 153.135 210.924 152.263C209.613 151.424 208.655 150.451 208.049 149.344C207.444 148.236 207.091 147.163 206.99 146.123C206.889 145.049 206.839 144.311 206.839 143.908V73.0495C206.839 72.7811 206.856 72.3785 206.889 71.8417C206.923 71.3048 207.024 70.7177 207.192 70.0802C207.36 69.4092 207.646 68.7382 208.049 68.0672C208.453 67.3626 209.008 66.7252 209.714 66.1548C210.42 65.5845 211.328 65.1315 212.437 64.796C213.547 64.427 214.909 64.2424 216.523 64.2424C218.137 64.2424 219.499 64.427 220.608 64.796C221.718 65.1315 222.626 65.5845 223.332 66.1548C224.038 66.7252 224.593 67.3626 224.996 68.0672C225.4 68.7382 225.686 69.4092 225.854 70.0802C226.022 70.7177 226.123 71.3048 226.156 71.8417C226.19 72.3785 226.207 72.7811 226.207 73.0495V143.908ZM213.295 143.908C213.295 144.311 213.312 144.798 213.345 145.368C213.379 145.905 213.497 146.425 213.698 146.928C213.9 147.431 214.219 147.867 214.657 148.236C215.094 148.572 215.716 148.74 216.523 148.74C217.33 148.74 217.952 148.572 218.389 148.236C218.826 147.867 219.145 147.431 219.347 146.928C219.549 146.425 219.667 145.905 219.7 145.368C219.734 144.798 219.751 144.311 219.751 143.908V73.0495C219.751 72.6469 219.734 72.2107 219.7 71.741C219.667 71.2713 219.549 70.8519 219.347 70.4828C219.145 70.0802 218.826 69.7447 218.389 69.4763C217.952 69.2079 217.33 69.0737 216.523 69.0737C215.716 69.0737 215.094 69.2079 214.657 69.4763C214.219 69.7447 213.9 70.0802 213.698 70.4828C213.497 70.8519 213.379 71.2713 213.345 71.741C213.312 72.2107 213.295 72.6469 213.295 73.0495V143.908Z" fill="#FFF7F5"/>
<path d="M196.251 100.427H189.795V73.0495C189.795 72.2443 189.694 71.59 189.493 71.0868C189.324 70.55 189.089 70.1473 188.786 69.8789C188.484 69.577 188.131 69.3757 187.727 69.275C187.357 69.1408 186.971 69.0737 186.567 69.0737C186.164 69.0737 185.76 69.1408 185.357 69.275C184.987 69.3757 184.651 69.577 184.348 69.8789C184.045 70.1473 183.793 70.55 183.591 71.0868C183.423 71.59 183.339 72.2443 183.339 73.0495V143.908C183.339 144.311 183.356 144.798 183.39 145.368C183.423 145.905 183.541 146.425 183.743 146.928C183.945 147.431 184.264 147.867 184.701 148.236C185.138 148.572 185.76 148.74 186.567 148.74C187.374 148.74 187.996 148.572 188.433 148.236C188.871 147.867 189.19 147.431 189.392 146.928C189.593 146.425 189.711 145.905 189.745 145.368C189.778 144.798 189.795 144.311 189.795 143.908V110.089H196.251V143.908C196.251 144.311 196.201 145.049 196.1 146.123C195.999 147.163 195.646 148.236 195.041 149.344C194.435 150.451 193.477 151.424 192.166 152.263C190.854 153.135 188.988 153.571 186.567 153.571C184.146 153.571 182.28 153.135 180.969 152.263C179.657 151.424 178.699 150.451 178.094 149.344C177.489 148.236 177.135 147.163 177.035 146.123C176.934 145.049 176.883 144.311 176.883 143.908V73.0495C176.883 71.5061 177.169 70.1809 177.741 69.0737C178.312 67.933 179.052 67.0104 179.96 66.3058C180.901 65.6012 181.944 65.0812 183.087 64.7457C184.23 64.4102 185.39 64.2424 186.567 64.2424C187.811 64.2424 189.005 64.427 190.148 64.796C191.325 65.1651 192.368 65.7187 193.275 66.4568C194.183 67.1949 194.906 68.1175 195.444 69.2247C195.982 70.3319 196.251 71.6068 196.251 73.0495V100.427Z" fill="#FFF7F5"/>
<path d="M361.282 58.2626H357.467L356.99 45.8916H354.159L353.652 58.2626H349.837L352.698 6.87524H358.421L361.282 58.2626ZM356.513 31.6173L355.559 8.77848L354.606 31.6173L354.159 43.0367H356.99L356.513 31.6173Z" fill="#FFF7F5"/>
<path d="M344.058 6.87524V58.2626H340.243V6.87524H344.058Z" fill="#FFF7F5"/>
<path d="M333.509 27.8108C333.509 29.2383 333.271 30.2295 332.794 30.7846C332.317 31.3398 331.602 31.6173 330.648 31.6173C331.125 31.6173 331.542 31.7264 331.9 31.9444C332.258 32.1625 332.556 32.45 332.794 32.8068C333.033 33.1637 333.211 33.5701 333.331 34.0261C333.45 34.4821 333.509 34.948 333.509 35.4238V58.2626H329.694V34.4722C329.694 33.9964 329.585 33.6296 329.367 33.3719C329.148 33.1141 328.86 32.9258 328.502 32.8068C328.145 32.6879 327.737 32.6185 327.28 32.5987C326.823 32.5788 326.356 32.5689 325.88 32.5689V58.2626H322.065V6.87524H325.88C326.833 6.87524 327.767 6.90498 328.681 6.96446C329.595 7.00411 330.41 7.17262 331.125 7.47001C331.84 7.76739 332.417 8.2432 332.854 8.89743C333.291 9.53184 333.509 10.4438 333.509 11.6333V27.8108ZM329.694 11.6333C329.694 11.1575 329.625 10.7908 329.486 10.533C329.367 10.2753 329.158 10.087 328.86 9.968C328.562 9.84905 328.165 9.77966 327.668 9.75984C327.191 9.74001 326.595 9.7301 325.88 9.7301V30.6657C326.356 30.6657 326.823 30.6558 327.28 30.636C327.737 30.6161 328.145 30.5467 328.502 30.4278C328.86 30.3088 329.148 30.1205 329.367 29.8628C329.585 29.605 329.694 29.2383 329.694 28.7625V11.6333Z" fill="#FFF7F5"/>
<path d="M316.762 9.7301H311.993V29.7141H315.808V32.5689H311.993V55.4078H316.762V58.2626H308.178V6.87524H316.762V9.7301Z" fill="#FFF7F5"/>
<path d="M297.153 6.87524H300.968L301.922 58.2626H298.107V23.0528L295.246 55.4078H293.339L290.477 23.0528V58.2626H286.662L287.616 6.87524H291.431L294.292 42.0851L297.153 6.87524Z" fill="#FFF7F5"/>
<path d="M281.36 58.2626H277.545L277.068 45.8916H274.237L273.73 58.2626H269.915L272.776 6.87524H278.499L281.36 58.2626ZM276.591 31.6173L275.637 8.77848L274.684 31.6173L274.237 43.0367H277.068L276.591 31.6173Z" fill="#FFF7F5"/>
<path d="M264.612 58.2626H260.798L256.029 20.1979V58.2626H253.168V6.87524H256.983L261.751 44.94V6.87524H264.612V58.2626Z" fill="#FFF7F5"/>
<path d="M246.911 27.8113H243.097V11.6338C243.097 11.3959 243.087 11.1382 243.067 10.8607C243.047 10.5831 242.977 10.3353 242.858 10.1172C242.739 9.8793 242.55 9.68105 242.292 9.52245C242.034 9.36384 241.666 9.28454 241.189 9.28454C240.712 9.28454 240.345 9.36384 240.086 9.52245C239.828 9.68105 239.639 9.8793 239.52 10.1172C239.401 10.3353 239.331 10.5831 239.311 10.8607C239.292 11.1382 239.282 11.3959 239.282 11.6338V53.505C239.282 53.7429 239.292 54.0304 239.311 54.3674C239.331 54.6846 239.401 54.9919 239.52 55.2893C239.639 55.5867 239.828 55.8444 240.086 56.0625C240.345 56.2608 240.712 56.3599 241.189 56.3599C241.666 56.3599 242.034 56.2608 242.292 56.0625C242.55 55.8444 242.739 55.5867 242.858 55.2893C242.977 54.9919 243.047 54.6846 243.067 54.3674C243.087 54.0304 243.097 53.7429 243.097 53.505V34.4727H242.143V31.6178H246.911V53.505C246.911 53.7429 246.882 54.1791 246.822 54.8135C246.762 55.4281 246.554 56.0625 246.196 56.7167C245.838 57.371 245.272 57.9459 244.497 58.4415C243.722 58.957 242.62 59.2147 241.189 59.2147C239.758 59.2147 238.656 58.957 237.881 58.4415C237.106 57.9459 236.54 57.371 236.182 56.7167C235.824 56.0625 235.616 55.4281 235.556 54.8135C235.497 54.1791 235.467 53.7429 235.467 53.505V11.6338C235.467 11.4752 235.477 11.2373 235.497 10.9201C235.516 10.6029 235.576 10.256 235.675 9.8793C235.775 9.48279 235.944 9.08629 236.182 8.68978C236.42 8.27345 236.748 7.89676 237.166 7.55973C237.583 7.2227 238.119 6.95506 238.775 6.75681C239.431 6.53873 240.235 6.42969 241.189 6.42969C242.143 6.42969 242.947 6.53873 243.603 6.75681C244.259 6.95506 244.795 7.2227 245.213 7.55973C245.63 7.89676 245.958 8.27345 246.196 8.68978C246.435 9.08629 246.603 9.48279 246.703 9.8793C246.802 10.256 246.862 10.6029 246.882 10.9201C246.901 11.2373 246.911 11.4752 246.911 11.6338V27.8113Z" fill="#FFF7F5"/>
<path d="M230.164 9.7301H225.395V29.7141H229.21V32.5689H225.395V55.4078H230.164V58.2626H221.581V6.87524H230.164V9.7301Z" fill="#FFF7F5"/>
<path d="M211.509 6.87524V55.4078H215.324V58.2626H207.694V6.87524H211.509Z" fill="#FFF7F5"/>
<path d="M202.392 58.2626H198.577L198.1 45.8916H195.269L194.762 58.2626H190.947L193.808 6.87524H199.531L202.392 58.2626ZM197.623 31.6173L196.669 8.77848L195.716 31.6173L195.269 43.0367H198.1L197.623 31.6173Z" fill="#FFF7F5"/>
<path d="M186.598 9.7301H181.829V28.7625H185.644V31.6173H181.829V58.2626H178.014V6.87524H186.598V9.7301Z" fill="#FFF7F5"/>
</svg>
