<svg width="160" height="71" viewBox="0 0 160 71" fill="none" xmlns="http://www.w3.org/2000/svg">
<path d="M69.8271 38.6655C69.7538 43.901 67.3632 48.4853 65.2172 53.1252C63.8899 55.9141 62.1091 58.3764 60.2802 60.8481C58.7268 62.9279 56.7838 64.0957 54.2007 65.6915C52.2235 66.913 50.3119 67.7268 48.0504 68.2685C47.1538 68.4883 46.2644 68.7293 45.3742 68.9736C43.7393 69.4224 42.1048 69.8724 40.4704 70.3231C31.4906 72.6269 22.3367 68.6588 14.6139 64.3055C12.9471 63.2958 11.3713 62.1607 9.76052 61.068C6.48456 58.6202 4.83335 54.594 3.03326 51.0593C-0.537647 43.7977 -0.804343 35.7125 1.44138 28.0462C4.89919 17.0011 12.9008 9.42693 22.6536 3.72317C29.5514 -0.0511333 38.7315 -1.03344 46.2709 1.13264C61.5909 6.11195 70.2071 23.4382 69.8271 38.6655ZM53.8534 9.56066C53.5992 9.30384 53.3449 9.04702 53.083 8.78242C48.4975 4.3872 43.3005 3.54195 37.1695 3.56541C32.9696 3.65674 29.1972 5.22713 25.4154 6.88215C15.0791 11.673 7.58688 20.9028 4.3492 31.6905C3.79407 33.6844 3.73447 35.7195 3.74498 37.7729C3.88242 45.3652 6.49808 52.8726 11.7057 58.5235C17.5769 63.933 27.2024 68.0809 35.2116 67.9528C38.0455 67.821 40.7226 67.1761 43.4359 66.3844C43.6806 66.314 43.9252 66.2436 44.1773 66.1711C45.7951 65.7003 47.3943 65.1868 48.9919 64.652C49.3169 64.5502 49.6419 64.4483 49.9767 64.3434C55.2694 62.5109 59.3658 57.4856 62.0573 52.7632C62.299 52.3522 62.299 52.3522 62.5456 51.9328C71.2264 36.8729 66.1543 21.2948 53.8534 9.56066Z" fill="#FFF7F5"/>
<path d="M62.6637 37.7094C62.6157 44.6692 59.086 50.8551 54.2876 55.8167C50.7752 59.2648 46.2732 60.3633 41.7214 61.7368C36.6992 62.7428 31.534 61.5112 26.5745 60.6946C20.3349 59.6265 15.9054 56.656 12.1832 51.4857C8.63716 45.1611 5.55607 38.1736 7.47363 30.8481C8.77339 27.1355 11.0239 24.0159 13.8829 21.34C15.3371 19.9643 16.6034 18.3771 17.9265 16.8763C22.2179 12.1968 28.2627 9.60554 34.6014 9.11956C40.1104 8.97563 44.4151 10.8422 48.992 13.7186C51.3179 15.1235 53.1763 16.8956 54.8424 19.0459C55.5175 19.8674 56.177 20.5018 57.0005 21.1681C62.1709 25.5033 62.6623 31.4563 62.6637 37.7094ZM55.5898 22.0343C53.5527 19.6578 51.4338 17.311 48.6447 15.7975C43.7238 13.1088 38.1955 10.3563 32.4449 11.8843C27.7518 13.3347 23.3368 15.1035 19.9096 18.721C17.8609 20.8223 15.9964 23.0803 13.9195 25.1527C10.8075 28.5584 9.42107 32.623 9.55443 37.1633C10.048 43.7294 13.4663 51.125 18.3863 55.5298C23.991 60.0575 33.72 60.8493 40.6579 60.1478C42.2197 59.8094 43.6809 59.3304 45.1722 58.7619C52.0069 56.4143 55.8242 50.6823 59.0623 44.5559C62.4786 36.9653 60.8469 28.1251 55.5898 22.0343Z" fill="#FFF7F5"/>
<path d="M50.7282 51.8322C48.6485 54.2439 46.6061 55.7842 43.4359 56.3365C42.2357 56.4106 41.0354 56.4025 39.8332 56.4015C36.4182 56.3987 33.0596 56.0647 29.6977 55.492C27.3877 55.0438 25.2986 54.0224 23.0959 53.252C18.3704 51.5696 15.2265 47.3242 13.0079 42.9752C11.6609 39.8278 11.8873 36.6915 12.8777 33.4684C15.2434 25.4401 22.4842 20.4102 29.6462 16.879C31.8619 15.9648 34.1218 15.6769 36.4978 15.6953C41.8633 15.8106 46.5763 16.6771 50.7282 20.302C51.5325 21.2112 52.2493 22.1909 52.9901 23.151C54.5086 25.145 55.1035 27.2225 55.373 29.6673C56.1264 37.0531 55.6504 45.8346 50.7282 51.8322ZM48.9865 21.8828C47.4574 20.6814 45.7242 19.8648 43.9717 19.0527C41.6084 18.1908 39.0526 18.4147 36.5817 18.336C33.5289 18.3206 31.4446 19.0762 28.8513 20.6484C27.9507 21.1846 27.0681 21.7447 26.2035 22.3376C24.206 23.6894 20.4286 25.8525 18.0865 29.3106C15.6853 32.8559 13.652 35.5353 14.6139 39.7052C14.9815 41.2985 15.6911 42.2679 16.3502 43.5165C18.5439 47.7226 21.0953 50.92 25.726 52.5252C30.1006 54.0564 34.5962 54.6658 39.2255 54.7124C42.5945 54.7674 45.4395 54.1944 48.0031 51.8336C49.0667 50.6825 49.7275 49.4354 50.3809 48.0209C53.9939 40.445 55.9151 28.2643 48.9865 21.8828Z" fill="#FFF7F5"/>
<path d="M50.1028 35.0842C50.2867 40.2886 48.2133 45.4367 45.0793 49.4105C43.4624 51.1615 42.0988 50.8589 39.862 50.8912C27.7739 50.9712 27.7739 50.9712 23.7306 47.1213C22.4997 45.5099 21.5943 43.69 20.4834 41.9962C19.0597 39.6254 19.2406 36.6199 19.5776 33.9353C20.0748 32.6077 20.736 31.6751 21.6541 30.6387C24.7235 26.9002 28.8417 24.0887 33.5708 23.5421C35.8925 23.4958 38.094 23.8104 40.3423 24.412C39.5035 25.7437 38.7044 25.6829 37.1844 25.7856C31.9573 26.3178 27.2801 28.9149 23.882 33.1798C22.8883 34.7169 22.5205 36.1053 22.6923 37.9643C23.4021 40.9276 24.8999 43.4668 27.1265 45.4043C29.4884 46.7278 31.8782 47.303 34.5239 47.5562C34.8062 47.5857 35.0885 47.6151 35.3794 47.6455C39.7683 48.0715 42.251 48.7885 44.4581 44.7419C46.0564 41.7932 46.9146 39.4756 47.0273 36.0328C47.11 33.6245 47.783 31.5544 47.2639 28.8074C47.0784 27.8255 48.0597 25.3639 49.6865 28.8074C50.7247 31.005 49.9747 32.9906 50.1028 35.0842Z" fill="#FFF7F5"/>
<path d="M159.721 28.8426V67.4326H156.856V28.8426H159.721Z" fill="#FFF7F5"/>
<path d="M148.935 32.4158C148.935 32.0584 148.882 31.783 148.778 31.5895C148.688 31.3959 148.532 31.2545 148.308 31.1652C148.084 31.0758 147.786 31.0237 147.413 31.0088C147.054 30.9939 146.607 30.9865 146.07 30.9865V65.2887C146.607 65.2887 147.054 65.2812 147.413 65.2663C147.786 65.2514 148.084 65.1993 148.308 65.11C148.532 65.0207 148.688 64.8792 148.778 64.6857C148.882 64.4922 148.935 64.2167 148.935 63.8594V32.4158ZM151.799 63.8594C151.799 64.7527 151.635 65.445 151.307 65.9363C150.979 66.4127 150.546 66.7626 150.009 66.9859C149.472 67.2092 148.86 67.3432 148.174 67.3879C147.487 67.4177 146.786 67.4326 146.07 67.4326H143.205V28.8426H146.07C146.786 28.8426 147.487 28.865 148.174 28.9096C148.86 28.9394 149.472 29.0659 150.009 29.2893C150.546 29.5126 150.979 29.8699 151.307 30.3612C151.635 30.8376 151.799 31.5225 151.799 32.4158V63.8594Z" fill="#FFF7F5"/>
<path d="M139.223 67.4326H136.358L136 58.1424H133.874L133.493 67.4326H130.628L132.777 28.8426H137.074L139.223 67.4326ZM135.642 47.423L134.926 30.2719L134.209 47.423L133.874 55.9985H136L135.642 47.423Z" fill="#FFF7F5"/>
<path d="M126.646 44.5644C126.646 45.6364 126.467 46.3808 126.109 46.7977C125.751 47.2145 125.214 47.423 124.497 47.423C124.856 47.423 125.169 47.5048 125.438 47.6686C125.706 47.8324 125.93 48.0483 126.109 48.3162C126.288 48.5842 126.422 48.8894 126.512 49.2319C126.601 49.5743 126.646 49.9242 126.646 50.2815V67.4326H123.781V49.5668C123.781 49.2095 123.699 48.9341 123.535 48.7406C123.371 48.547 123.155 48.4056 122.886 48.3162C122.617 48.2269 122.312 48.1748 121.968 48.1599C121.625 48.145 121.275 48.1376 120.916 48.1376V67.4326H118.052V28.8426H120.916C121.633 28.8426 122.334 28.865 123.02 28.9096C123.707 28.9394 124.318 29.0659 124.856 29.2893C125.393 29.5126 125.825 29.8699 126.154 30.3612C126.482 30.8376 126.646 31.5225 126.646 32.4158V44.5644ZM123.781 32.4158C123.781 32.0584 123.729 31.783 123.625 31.5895C123.535 31.3959 123.378 31.2545 123.155 31.1652C122.931 31.0758 122.632 31.0237 122.259 31.0088C121.901 30.9939 121.454 30.9865 120.916 30.9865V46.7083C121.275 46.7083 121.625 46.7009 121.968 46.686C122.312 46.6711 122.617 46.619 122.886 46.5297C123.155 46.4403 123.371 46.2989 123.535 46.1054C123.699 45.9118 123.781 45.6364 123.781 45.2791V32.4158Z" fill="#FFF7F5"/>
<path d="M113.353 44.5644C113.353 45.6364 113.174 46.3808 112.816 46.7977C112.458 47.2145 111.921 47.423 111.205 47.423C111.563 47.423 111.876 47.5048 112.145 47.6686C112.413 47.8324 112.637 48.0483 112.816 48.3162C112.995 48.5842 113.13 48.8894 113.219 49.2319C113.309 49.5743 113.353 49.9242 113.353 50.2815V67.4326H110.489V49.5668C110.489 49.2095 110.406 48.9341 110.242 48.7406C110.078 48.547 109.862 48.4056 109.593 48.3162C109.325 48.2269 109.019 48.1748 108.676 48.1599C108.332 48.145 107.982 48.1376 107.624 48.1376V67.4326H104.759V28.8426H107.624C108.34 28.8426 109.041 28.865 109.728 28.9096C110.414 28.9394 111.026 29.0659 111.563 29.2893C112.1 29.5126 112.533 29.8699 112.861 30.3612C113.189 30.8376 113.353 31.5225 113.353 32.4158V44.5644ZM110.489 32.4158C110.489 32.0584 110.436 31.783 110.332 31.5895C110.242 31.3959 110.086 31.2545 109.862 31.1652C109.638 31.0758 109.34 31.0237 108.967 31.0088C108.608 30.9939 108.161 30.9865 107.624 30.9865V46.7083C107.982 46.7083 108.332 46.7009 108.676 46.686C109.019 46.6711 109.325 46.619 109.593 46.5297C109.862 46.4403 110.078 46.2989 110.242 46.1054C110.406 45.9118 110.489 45.6364 110.489 45.2791V32.4158Z" fill="#FFF7F5"/>
<path d="M100.06 63.8596C100.06 64.0383 100.038 64.3658 99.9933 64.8422C99.9485 65.3038 99.7918 65.7802 99.5233 66.2715C99.2547 66.7628 98.8294 67.1946 98.2475 67.5668C97.6656 67.9538 96.8375 68.1474 95.7632 68.1474C94.6889 68.1474 93.8607 67.9538 93.2788 67.5668C92.6969 67.1946 92.2717 66.7628 92.0031 66.2715C91.7345 65.7802 91.5778 65.3038 91.5331 64.8422C91.4883 64.3658 91.4659 64.0383 91.4659 63.8596V32.416C91.4659 32.2969 91.4734 32.1182 91.4883 31.88C91.5032 31.6418 91.548 31.3812 91.6226 31.0984C91.6972 30.8006 91.824 30.5028 92.0031 30.2051C92.1821 29.8924 92.4283 29.6096 92.7417 29.3565C93.055 29.1034 93.4579 28.9024 93.9503 28.7535C94.4427 28.5897 95.047 28.5078 95.7632 28.5078C96.4794 28.5078 97.0837 28.5897 97.5761 28.7535C98.0685 28.9024 98.4713 29.1034 98.7847 29.3565C99.098 29.6096 99.3442 29.8924 99.5233 30.2051C99.7023 30.5028 99.8292 30.8006 99.9038 31.0984C99.9784 31.3812 100.023 31.6418 100.038 31.88C100.053 32.1182 100.06 32.2969 100.06 32.416V63.8596ZM94.3308 63.8596C94.3308 64.0383 94.3382 64.2542 94.3531 64.5072C94.3681 64.7455 94.4203 64.9762 94.5098 65.1995C94.5993 65.4229 94.7411 65.6164 94.9351 65.7802C95.129 65.9291 95.4051 66.0035 95.7632 66.0035C96.1213 66.0035 96.3973 65.9291 96.5913 65.7802C96.7853 65.6164 96.927 65.4229 97.0165 65.1995C97.1061 64.9762 97.1583 64.7455 97.1732 64.5072C97.1881 64.2542 97.1956 64.0383 97.1956 63.8596V32.416C97.1956 32.2373 97.1881 32.0438 97.1732 31.8353C97.1583 31.6269 97.1061 31.4408 97.0165 31.277C96.927 31.0984 96.7853 30.9495 96.5913 30.8304C96.3973 30.7113 96.1213 30.6517 95.7632 30.6517C95.4051 30.6517 95.129 30.7113 94.9351 30.8304C94.7411 30.9495 94.5993 31.0984 94.5098 31.277C94.4203 31.4408 94.3681 31.6269 94.3531 31.8353C94.3382 32.0438 94.3308 32.2373 94.3308 32.416V63.8596Z" fill="#FFF7F5"/>
<path d="M86.7677 44.5647H83.9028V32.416C83.9028 32.0587 83.8581 31.7683 83.7685 31.545C83.6939 31.3068 83.5895 31.1281 83.4552 31.009C83.3209 30.875 83.1642 30.7857 82.9852 30.7411C82.8211 30.6815 82.6495 30.6517 82.4704 30.6517C82.2914 30.6517 82.1123 30.6815 81.9333 30.7411C81.7691 30.7857 81.6199 30.875 81.4856 31.009C81.3513 31.1281 81.2394 31.3068 81.1499 31.545C81.0753 31.7683 81.038 32.0587 81.038 32.416V63.8596C81.038 64.0383 81.0455 64.2542 81.0604 64.5072C81.0753 64.7455 81.1275 64.9762 81.2171 65.1995C81.3066 65.4229 81.4483 65.6164 81.6423 65.7802C81.8363 65.9291 82.1123 66.0035 82.4704 66.0035C82.8285 66.0035 83.1046 65.9291 83.2985 65.7802C83.4925 65.6164 83.6343 65.4229 83.7238 65.1995C83.8133 64.9762 83.8655 64.7455 83.8805 64.5072C83.8954 64.2542 83.9028 64.0383 83.9028 63.8596V48.8524H86.7677V63.8596C86.7677 64.0383 86.7453 64.3658 86.7005 64.8422C86.6558 65.3038 86.4991 65.7802 86.2305 66.2715C85.9619 66.7628 85.5367 67.1946 84.9548 67.5668C84.3729 67.9538 83.5447 68.1474 82.4704 68.1474C81.3961 68.1474 80.568 67.9538 79.9861 67.5668C79.4042 67.1946 78.9789 66.7628 78.7103 66.2715C78.4418 65.7802 78.2851 65.3038 78.2403 64.8422C78.1956 64.3658 78.1732 64.0383 78.1732 63.8596V32.416C78.1732 31.7311 78.3 31.143 78.5537 30.6517C78.8073 30.1455 79.1356 29.7361 79.5384 29.4235C79.9562 29.1108 80.4188 28.88 80.9261 28.7312C81.4334 28.5823 81.9482 28.5078 82.4704 28.5078C83.0225 28.5078 83.5522 28.5897 84.0595 28.7535C84.5817 28.9173 85.0443 29.1629 85.4472 29.4905C85.85 29.818 86.1708 30.2274 86.4096 30.7187C86.6483 31.21 86.7677 31.7758 86.7677 32.416V44.5647Z" fill="#FFF7F5"/>
<path d="M160 25.8541H158.307L158.096 20.3644H156.839L156.614 25.8541H154.921L156.191 3.05093H158.73L160 25.8541ZM157.884 14.0302L157.461 3.89549L157.037 14.0302L156.839 19.0976H158.096L157.884 14.0302Z" fill="#FFF7F5"/>
<path d="M152.357 3.05093V25.8541H150.664V3.05093H152.357Z" fill="#FFF7F5"/>
<path d="M147.676 12.3411C147.676 12.9745 147.57 13.4144 147.359 13.6607C147.147 13.9071 146.83 14.0302 146.406 14.0302C146.618 14.0302 146.803 14.0786 146.962 14.1754C147.12 14.2722 147.253 14.3997 147.359 14.5581C147.464 14.7164 147.544 14.8968 147.597 15.0991C147.65 15.3015 147.676 15.5082 147.676 15.7193V25.8541H145.983V15.2971C145.983 15.0859 145.935 14.9232 145.838 14.8088C145.741 14.6944 145.613 14.6109 145.454 14.5581C145.295 14.5053 145.115 14.4745 144.912 14.4657C144.709 14.4569 144.502 14.4525 144.29 14.4525V25.8541H142.597V3.05093H144.29C144.713 3.05093 145.128 3.06413 145.533 3.09052C145.939 3.10812 146.301 3.1829 146.618 3.31486C146.935 3.44682 147.191 3.65796 147.385 3.94828C147.579 4.2298 147.676 4.63449 147.676 5.16234V12.3411ZM145.983 5.16234C145.983 4.9512 145.952 4.78844 145.891 4.67407C145.838 4.55971 145.745 4.47613 145.613 4.42335C145.481 4.37056 145.304 4.33977 145.084 4.33097C144.872 4.32217 144.608 4.31778 144.29 4.31778V13.6079C144.502 13.6079 144.709 13.6035 144.912 13.5947C145.115 13.586 145.295 13.5552 145.454 13.5024C145.613 13.4496 145.741 13.366 145.838 13.2516C145.935 13.1373 145.983 12.9745 145.983 12.7634V5.16234Z" fill="#FFF7F5"/>
<path d="M140.244 4.31778H138.128V13.1857H139.821V14.4525H138.128V24.5872H140.244V25.8541H136.435V3.05093H140.244V4.31778Z" fill="#FFF7F5"/>
<path d="M131.543 3.05093H133.236L133.659 25.8541H131.966V10.2297L130.697 24.5872H129.85L128.581 10.2297V25.8541H126.888L127.311 3.05093H129.004L130.273 18.6753L131.543 3.05093Z" fill="#FFF7F5"/>
<path d="M124.535 25.8541H122.842L122.63 20.3644H121.374L121.149 25.8541H119.456L120.726 3.05093H123.265L124.535 25.8541ZM122.419 14.0302L121.995 3.89549L121.572 14.0302L121.374 19.0976H122.63L122.419 14.0302Z" fill="#FFF7F5"/>
<path d="M117.103 25.8541H115.41L113.294 8.96286V25.8541H112.024V3.05093H113.717L115.833 19.9422V3.05093H117.103V25.8541Z" fill="#FFF7F5"/>
<path d="M109.248 12.3414H107.555V5.16262C107.555 5.05705 107.551 4.94268 107.542 4.81951C107.533 4.69635 107.502 4.58638 107.449 4.48961C107.397 4.38404 107.313 4.29606 107.198 4.22568C107.084 4.1553 106.92 4.12011 106.709 4.12011C106.497 4.12011 106.334 4.1553 106.219 4.22568C106.105 4.29606 106.021 4.38404 105.968 4.48961C105.915 4.58638 105.884 4.69635 105.876 4.81951C105.867 4.94268 105.862 5.05705 105.862 5.16262V23.743C105.862 23.8485 105.867 23.9761 105.876 24.1256C105.884 24.2664 105.915 24.4028 105.968 24.5347C106.021 24.6667 106.105 24.7811 106.219 24.8778C106.334 24.9658 106.497 25.0098 106.709 25.0098C106.92 25.0098 107.084 24.9658 107.198 24.8778C107.313 24.7811 107.397 24.6667 107.449 24.5347C107.502 24.4028 107.533 24.2664 107.542 24.1256C107.551 23.9761 107.555 23.8485 107.555 23.743V15.2973H107.132V14.0305H109.248V23.743C109.248 23.8485 109.235 24.0421 109.208 24.3236C109.182 24.5963 109.089 24.8778 108.931 25.1682C108.772 25.4585 108.521 25.7136 108.177 25.9335C107.833 26.1623 107.344 26.2766 106.709 26.2766C106.074 26.2766 105.585 26.1623 105.241 25.9335C104.897 25.7136 104.646 25.4585 104.487 25.1682C104.328 24.8778 104.236 24.5963 104.209 24.3236C104.183 24.0421 104.17 23.8485 104.17 23.743V5.16262C104.17 5.09224 104.174 4.98667 104.183 4.84591C104.192 4.70515 104.218 4.55119 104.262 4.38404C104.306 4.20809 104.381 4.03214 104.487 3.85619C104.593 3.67144 104.738 3.50429 104.923 3.35473C105.109 3.20517 105.347 3.08641 105.638 2.99843C105.929 2.90166 106.286 2.85327 106.709 2.85327C107.132 2.85327 107.489 2.90166 107.78 2.99843C108.071 3.08641 108.309 3.20517 108.494 3.35473C108.679 3.50429 108.825 3.67144 108.931 3.85619C109.037 4.03214 109.111 4.20809 109.156 4.38404C109.2 4.55119 109.226 4.70515 109.235 4.84591C109.244 4.98667 109.248 5.09224 109.248 5.16262V12.3414Z" fill="#FFF7F5"/>
<path d="M101.817 4.31778H99.7004V13.1857H101.393V14.4525H99.7004V24.5872H101.817V25.8541H98.0076V3.05093H101.817V4.31778Z" fill="#FFF7F5"/>
<path d="M93.5384 3.05093V24.5872H95.2313V25.8541H91.8456V3.05093H93.5384Z" fill="#FFF7F5"/>
<path d="M89.4925 25.8541H87.7997L87.5881 20.3644H86.3316L86.1068 25.8541H84.414L85.6836 3.05093H88.2229L89.4925 25.8541ZM87.3765 14.0302L86.9532 3.89549L86.53 14.0302L86.3316 19.0976H87.5881L87.3765 14.0302Z" fill="#FFF7F5"/>
<path d="M82.4841 4.31778H80.368V12.7634H82.0608V14.0302H80.368V25.8541H78.6751V3.05093H82.4841V4.31778Z" fill="#FFF7F5"/>
</svg>
