<svg width="123" height="125" viewBox="0 0 123 125" fill="none" xmlns="http://www.w3.org/2000/svg">
<path d="M122.979 68.0731C122.85 77.2906 118.639 85.3614 114.86 93.5304C112.522 98.4403 109.386 102.775 106.165 107.127C103.429 110.789 100.007 112.844 95.4578 115.654C91.9755 117.805 88.609 119.237 84.6259 120.191C83.0468 120.578 81.4805 121.002 79.9127 121.432C77.0333 122.222 74.1546 123.015 71.2761 123.808C55.461 127.864 39.3392 120.878 25.7379 113.214C22.8023 111.436 20.0271 109.438 17.1902 107.514C11.4206 103.205 8.51247 96.1162 5.34218 89.8932C-0.946872 77.1087 -1.41658 62.8741 2.53857 49.3772C8.62844 29.9315 22.7207 16.5967 39.8974 6.55488C52.0457 -0.0900235 68.2136 -1.81944 81.4919 1.99409C108.473 10.7605 123.648 41.2644 122.979 68.0731ZM94.8462 16.8321C94.3984 16.38 93.9507 15.9279 93.4893 15.462C85.4133 7.72395 76.2605 6.23583 65.4626 6.27713C58.0657 6.43792 51.4218 9.20269 44.7613 12.1165C26.5573 20.5511 13.362 36.8007 7.65979 55.7932C6.68211 59.3035 6.57714 62.8865 6.59565 66.5016C6.83771 79.8683 11.4444 93.0856 20.616 103.034C30.9563 112.558 47.9087 119.861 62.0144 119.635C67.0054 119.403 71.7204 118.268 76.4989 116.874C76.9298 116.75 77.3608 116.626 77.8048 116.498C80.6539 115.669 83.4705 114.766 86.2841 113.824C86.8565 113.645 87.4288 113.465 88.0185 113.281C97.34 110.054 104.555 101.207 109.295 92.893C109.72 92.1693 109.72 92.1693 110.155 91.4311C125.443 64.9171 116.51 37.4909 94.8462 16.8321Z" fill="#0D0806"/>
<path d="M110.363 66.39C110.278 78.6431 104.062 89.5337 95.6107 98.269C89.4246 104.34 81.4958 106.273 73.4792 108.692C64.6342 110.463 55.5372 108.294 46.8027 106.857C35.8135 104.976 28.0123 99.7467 21.4569 90.6439C15.2116 79.509 9.78516 67.2072 13.1624 54.3101C15.4515 47.7738 19.415 42.2817 24.4503 37.5705C27.0114 35.1486 29.2417 32.3542 31.5718 29.7118C39.1299 21.4734 49.7759 16.9113 60.9395 16.0557C70.6419 15.8023 78.2234 19.0886 86.2841 24.1526C90.3805 26.626 93.6535 29.7458 96.5878 33.5316C97.7767 34.9779 98.9383 36.0948 100.389 37.2679C109.495 44.9003 110.36 55.381 110.363 66.39ZM97.9041 38.7929C94.3164 34.6089 90.5845 30.4772 85.6725 27.8127C77.0058 23.0789 67.2695 18.2331 57.1416 20.9233C48.8761 23.4768 41.1005 26.5907 35.0645 32.9597C31.4563 36.6592 28.1726 40.6345 24.5148 44.283C19.0339 50.2789 16.5922 57.4349 16.827 65.4285C17.6964 76.9885 23.7166 90.0089 32.3816 97.7639C42.2526 105.735 59.3872 107.129 71.6062 105.894C74.3568 105.298 76.9303 104.455 79.5568 103.454C91.594 99.3211 98.317 89.2296 104.02 78.4437C110.037 65.0798 107.163 49.5162 97.9041 38.7929Z" fill="#0D0806"/>
</svg>
