<svg width="508" height="517" viewBox="0 0 508 517" fill="none" xmlns="http://www.w3.org/2000/svg">
<g filter="url(#filter0_b_30_652)">
    <path d="M507.912 281.55C507.38 319.674 489.99 353.055 474.38 386.842C464.726 407.149 451.773 425.079 438.47 443.077C427.17 458.222 413.037 466.725 394.248 478.345C379.866 487.24 365.962 493.166 349.512 497.11C342.99 498.711 336.521 500.465 330.046 502.245C318.154 505.512 306.264 508.79 294.376 512.071C229.058 528.847 162.474 499.953 106.3 468.253C94.1752 460.901 82.7135 452.635 70.9966 444.679C47.1678 426.854 35.1571 397.537 22.0636 371.798C-3.91075 318.922 -5.85066 260.047 10.4844 204.224C35.636 123.797 93.8383 68.644 164.779 27.111C214.953 -0.372306 281.728 -7.52519 336.568 8.24759C448.003 44.5054 510.676 170.669 507.912 281.55Z" fill="#DC5B32" fill-opacity="0.4"/>
    <path d="M507.912 281.55C507.38 319.674 489.99 353.055 474.38 386.842C464.726 407.149 451.773 425.079 438.47 443.077C427.17 458.222 413.037 466.725 394.248 478.345C379.866 487.24 365.962 493.166 349.512 497.11C342.99 498.711 336.521 500.465 330.046 502.245C318.154 505.512 306.264 508.79 294.376 512.071C229.058 528.847 162.474 499.953 106.3 468.253C94.1752 460.901 82.7135 452.635 70.9966 444.679C47.1678 426.854 35.1571 397.537 22.0636 371.798C-3.91075 318.922 -5.85066 260.047 10.4844 204.224C35.636 123.797 93.8383 68.644 164.779 27.111C214.953 -0.372306 281.728 -7.52519 336.568 8.24759C448.003 44.5054 510.676 170.669 507.912 281.55Z" fill="#000000" fill-opacity="0.2"/>
</g>
</svg>
