<svg width="2117" height="2152" viewBox="0 0 2117 2152" fill="none" xmlns="http://www.w3.org/2000/svg">
<g opacity="0.2">
<path d="M2116.42 1171.93C2114.2 1330.62 2041.75 1469.56 1976.7 1610.2C1936.47 1694.73 1882.5 1769.36 1827.07 1844.28C1779.98 1907.31 1721.09 1942.71 1642.8 1991.08C1582.87 2028.1 1524.93 2052.77 1456.38 2069.18C1429.21 2075.85 1402.25 2083.15 1375.27 2090.56C1325.72 2104.16 1276.18 2117.8 1226.64 2131.46C954.466 2201.29 677.015 2081.02 442.941 1949.07C392.42 1918.46 344.66 1884.06 295.837 1850.94C196.544 1776.75 146.497 1654.72 91.937 1547.58C-16.2955 1327.49 -24.379 1082.43 43.6878 850.068C148.492 515.295 391.016 285.726 686.621 112.847C895.689 -1.54983 1173.93 -31.3232 1402.45 34.3299C1866.79 185.25 2127.94 710.399 2116.42 1171.93ZM1632.27 289.779C1624.57 281.995 1616.86 274.211 1608.92 266.191C1469.93 132.974 1312.42 107.355 1126.59 108.066C999.292 110.834 884.952 158.432 770.328 208.595C457.041 353.803 229.955 633.554 131.822 960.524C114.997 1020.96 113.19 1082.64 113.509 1144.88C117.675 1375 196.954 1602.54 354.794 1773.82C532.748 1937.78 824.493 2063.5 1067.25 2059.61C1153.14 2055.62 1234.28 2036.07 1316.52 2012.08C1323.94 2009.95 1331.35 2007.81 1338.99 2005.61C1388.03 1991.34 1436.5 1975.78 1484.92 1959.57C1494.77 1956.48 1504.62 1953.4 1514.77 1950.22C1675.19 1894.67 1799.35 1742.36 1880.93 1599.23C1888.25 1586.77 1888.25 1586.77 1895.73 1574.06C2158.84 1117.6 2005.1 645.436 1632.27 289.779Z" fill="#DC5B32"/>
<path d="M1899.31 1142.97C1897.85 1353.91 1790.87 1541.4 1645.43 1691.79C1538.97 1796.3 1402.52 1829.59 1264.55 1871.22C1112.34 1901.71 955.779 1864.38 805.461 1839.63C616.34 1807.26 482.084 1717.23 369.267 1560.52C261.788 1368.82 168.401 1157.03 226.521 935C265.917 822.474 334.127 727.922 420.783 646.815C464.859 605.12 503.241 557.013 543.342 511.522C673.414 369.691 856.629 291.15 1048.75 276.42C1215.73 272.058 1346.2 328.634 1484.92 415.816C1555.42 458.397 1611.75 512.107 1662.25 577.282C1682.71 602.182 1702.7 621.41 1727.66 641.605C1884.37 773.004 1899.26 953.437 1899.31 1142.97ZM1684.9 667.86C1623.16 595.829 1558.93 524.698 1474.4 478.827C1325.25 397.331 1157.69 313.907 983.39 360.22C841.143 404.18 707.328 457.79 603.45 567.436C541.354 631.126 484.843 699.565 421.893 762.376C327.568 865.601 285.548 988.798 289.59 1126.41C304.551 1325.43 408.157 1549.58 557.279 1683.09C727.156 1820.32 1022.04 1844.32 1232.32 1823.06C1279.66 1812.81 1323.95 1798.29 1369.15 1781.05C1576.3 1709.9 1692 1536.17 1790.15 1350.48C1893.7 1120.41 1844.24 852.47 1684.9 667.86Z" fill="#DC5B32"/>
<path d="M1537.55 1571.01C1474.51 1644.1 1412.61 1690.79 1316.52 1707.53C1280.14 1709.78 1243.76 1709.53 1207.32 1709.5C1103.82 1709.42 1002.02 1699.29 900.123 1681.93C830.109 1668.35 766.787 1637.39 700.024 1614.04C556.796 1563.05 461.507 1434.37 394.263 1302.55C353.437 1207.16 360.299 1112.1 390.316 1014.41C462.019 771.074 681.484 618.623 898.561 511.594C965.719 483.883 1034.22 475.158 1106.23 475.715C1268.86 479.211 1411.71 505.473 1537.55 615.341C1561.92 642.899 1583.65 672.593 1606.1 701.694C1652.13 762.131 1670.16 825.1 1678.33 899.201C1701.16 1123.06 1686.74 1389.22 1537.55 1571.01ZM1484.76 663.255C1438.41 626.843 1385.88 602.09 1332.76 577.477C1261.13 551.352 1183.66 558.14 1108.77 555.755C1016.25 555.287 953.071 578.189 874.468 625.843C847.17 642.092 820.422 659.07 794.215 677.039C733.673 718.012 619.18 783.576 548.192 888.388C475.413 995.844 413.786 1077.06 442.941 1203.44C454.081 1251.74 475.588 1281.12 495.566 1318.96C562.056 1446.45 639.388 1543.36 779.743 1592.01C912.333 1638.42 1048.59 1656.89 1188.9 1658.3C1291.02 1659.97 1377.25 1642.6 1454.95 1571.05C1487.19 1536.16 1507.22 1498.36 1527.02 1455.49C1636.53 1225.87 1694.76 856.676 1484.76 663.255Z" fill="#DC5B32"/>
<path d="M1518.59 1063.39C1524.16 1221.13 1461.32 1377.17 1366.33 1497.61C1317.32 1550.68 1275.99 1541.51 1208.2 1542.49C841.814 1544.91 841.814 1544.91 719.262 1428.22C681.955 1379.39 654.511 1324.23 620.841 1272.89C577.689 1201.03 583.173 1109.93 593.388 1028.56C608.457 988.325 628.496 960.06 656.325 928.648C749.356 815.333 874.176 730.12 1017.51 713.552C1087.88 712.148 1154.61 721.684 1222.76 739.918C1197.33 780.281 1173.11 778.437 1127.04 781.55C968.611 797.681 826.845 876.397 723.851 1005.67C693.732 1052.25 682.584 1094.34 687.793 1150.68C709.306 1240.5 754.704 1317.46 822.19 1376.19C893.779 1416.3 966.212 1433.73 1046.4 1441.41C1054.96 1442.3 1063.52 1443.19 1072.33 1444.11C1205.36 1457.03 1280.61 1478.76 1347.5 1356.11C1395.95 1266.73 1421.96 1196.49 1425.37 1092.14C1427.88 1019.14 1448.28 956.402 1432.55 873.139C1426.92 843.38 1456.66 768.768 1505.97 873.139C1537.44 939.749 1514.71 999.933 1518.59 1063.39Z" fill="#DC5B32"/>
</g>
</svg>
