<svg width="1683" height="1711" viewBox="0 0 1683 1711" fill="none" xmlns="http://www.w3.org/2000/svg">
<g opacity="0.3">
<path d="M1682.71 931.771C1680.94 1057.94 1623.33 1168.41 1571.62 1280.22C1539.63 1347.43 1496.72 1406.77 1452.65 1466.33C1415.21 1516.45 1368.39 1544.59 1306.14 1583.05C1258.49 1612.48 1212.43 1632.1 1157.93 1645.15C1136.32 1650.45 1114.89 1656.25 1093.44 1662.14C1054.04 1672.96 1014.65 1683.8 975.266 1694.66C758.869 1750.18 538.275 1654.56 352.17 1549.65C312.001 1525.32 274.029 1497.96 235.211 1471.63C156.266 1412.64 116.475 1315.62 73.0963 1230.44C-12.9564 1055.45 -19.3833 860.607 34.7347 675.865C118.062 409.697 310.885 227.172 545.912 89.722C712.137 -1.2321 933.361 -24.9041 1115.05 27.2948C1484.23 147.287 1691.87 564.818 1682.71 931.771ZM1297.77 230.395C1291.65 224.206 1285.52 218.017 1279.21 211.641C1168.7 105.724 1043.47 85.3549 895.719 85.9202C794.509 88.121 703.6 125.965 612.466 165.848C363.381 281.299 182.83 503.721 104.808 763.686C91.4305 811.735 89.9941 860.777 90.2474 910.261C93.5595 1093.22 156.592 1274.14 282.086 1410.31C423.573 1540.67 655.531 1640.63 848.538 1637.54C916.829 1634.37 981.344 1618.82 1046.73 1599.75C1052.62 1598.05 1058.52 1596.35 1064.6 1594.61C1103.58 1583.26 1142.12 1570.89 1180.62 1558C1188.45 1555.55 1196.28 1553.09 1204.35 1550.56C1331.9 1506.4 1430.61 1385.3 1495.47 1271.5C1501.3 1261.59 1501.3 1261.59 1507.24 1251.49C1716.43 888.572 1594.2 513.168 1297.77 230.395Z" fill="#DC5B32"/>
<path d="M1510.08 908.74C1508.93 1076.46 1423.87 1225.53 1308.23 1345.09C1223.59 1428.19 1115.1 1454.66 1005.41 1487.76C884.385 1512 759.912 1482.32 640.398 1462.64C490.034 1436.9 383.29 1365.32 293.593 1240.72C208.139 1088.31 133.89 919.926 180.1 743.393C211.422 653.926 265.654 578.75 334.552 514.265C369.596 481.114 400.112 442.865 431.995 406.697C535.412 293.931 681.081 231.485 833.831 219.774C966.588 216.306 1070.33 261.288 1180.62 330.604C1236.67 364.458 1281.45 407.162 1321.6 458.98C1337.87 478.778 1353.77 494.066 1373.61 510.122C1498.21 614.594 1510.05 758.051 1510.08 908.74ZM1339.61 530.997C1290.52 473.727 1239.46 417.173 1172.25 380.702C1053.66 315.907 920.444 249.579 781.865 286.401C668.768 321.353 562.376 363.976 479.785 451.153C430.414 501.791 385.484 556.205 335.434 606.144C260.439 688.215 227.03 786.165 230.244 895.579C242.139 1053.81 324.514 1232.03 443.076 1338.18C578.14 1447.29 812.591 1466.37 979.783 1449.47C1017.42 1441.31 1052.63 1429.77 1088.57 1416.07C1253.27 1359.49 1345.26 1221.36 1423.3 1073.73C1505.62 890.806 1466.3 677.775 1339.61 530.997Z" fill="#DC5B32"/>
<path d="M1222.46 1249.06C1172.34 1307.18 1123.12 1344.3 1046.73 1357.61C1017.81 1359.39 988.88 1359.2 959.907 1359.18C877.614 1359.11 796.678 1351.06 715.661 1337.26C659.995 1326.46 609.649 1301.84 556.568 1283.28C442.692 1242.73 366.93 1140.43 313.466 1035.62C281.006 959.777 286.462 884.198 310.328 806.529C367.337 613.059 541.828 491.849 714.419 406.754C767.815 384.721 822.274 377.785 879.531 378.227C1008.83 381.007 1122.41 401.887 1222.46 489.24C1241.84 511.151 1259.11 534.759 1276.97 557.897C1313.56 605.949 1327.89 656.013 1334.39 714.929C1352.55 892.912 1341.08 1104.53 1222.46 1249.06ZM1180.49 527.335C1143.64 498.385 1101.87 478.705 1059.64 459.135C1002.69 438.364 941.096 443.761 881.554 441.865C807.987 441.493 757.759 459.701 695.264 497.589C673.56 510.509 652.293 524.008 631.457 538.294C583.321 570.871 492.291 622.999 435.851 706.332C377.987 791.767 328.989 856.336 352.169 956.823C361.026 995.219 378.125 1018.58 394.01 1048.67C446.874 1150.03 508.358 1227.08 619.95 1265.76C725.369 1302.66 833.706 1317.35 945.263 1318.47C1026.45 1319.8 1095.01 1305.99 1156.79 1249.1C1182.42 1221.36 1198.34 1191.31 1214.09 1157.22C1301.16 974.652 1347.45 681.118 1180.49 527.335Z" fill="#DC5B32"/>
<path d="M1207.39 845.468C1211.82 970.886 1161.85 1094.95 1086.33 1190.71C1047.37 1232.9 1014.51 1225.61 960.603 1226.39C669.302 1228.32 669.302 1228.32 571.864 1135.54C542.203 1096.71 520.382 1052.85 493.612 1012.04C459.303 954.903 463.664 882.477 471.785 817.781C483.767 785.789 499.699 763.316 521.825 738.341C595.791 648.249 695.032 580.498 808.997 567.325C864.944 566.209 917.997 573.791 972.178 588.288C951.964 620.379 932.707 618.913 896.077 621.388C770.114 634.213 657.401 696.799 575.513 799.576C551.566 836.618 542.703 870.076 546.844 914.875C563.948 986.284 600.043 1047.47 653.699 1094.17C710.618 1126.06 768.207 1139.92 831.964 1146.02C838.767 1146.73 845.57 1147.44 852.579 1148.17C958.344 1158.44 1018.17 1175.72 1071.36 1078.2C1109.88 1007.14 1130.56 951.295 1133.27 868.328C1135.27 810.292 1151.49 760.408 1138.98 694.208C1134.5 670.548 1158.15 611.226 1197.35 694.208C1222.38 747.168 1204.3 795.018 1207.39 845.468Z" fill="#DC5B32"/>
</g>
</svg>
